<?xml version="1.0" standalone="no"?>
<!DOCTYPE svg PUBLIC "-//W3C//DTD SVG 20010904//EN"
 "http://www.w3.org/TR/2001/REC-SVG-20010904/DTD/svg10.dtd">
<svg version="1.0" xmlns="http://www.w3.org/2000/svg"
 width="920.000000pt" height="782.000000pt" viewBox="0 0 920.000000 782.000000"
 preserveAspectRatio="xMidYMid meet">

<g transform="translate(0.000000,782.000000) scale(0.100000,-0.100000)"
 stroke="none">
<path d="M6484 7624 c-10 -21 -29 -84 -43 -139 l-26 -99 -58 -14 c-78 -19
-105 -10 -242 79 -226 147 -324 184 -372 139 -43 -39 -42 -106 8 -368 38 -207
50 -546 25 -752 -27 -223 -108 -414 -246 -585 -125 -154 -204 -324 -270 -582
-6 -24 -37 -82 -70 -130 -68 -100 -345 -404 -495 -545 -227 -211 -426 -386
-608 -534 -371 -305 -520 -442 -646 -597 -68 -84 -155 -218 -185 -285 -22 -48
-74 -78 -182 -106 -185 -48 -481 20 -649 149 -99 75 -225 209 -309 328 -78
110 -161 192 -262 259 -199 133 -412 203 -649 215 -95 5 -130 2 -250 -22 -166
-34 -321 -37 -507 -11 -159 22 -197 7 -213 -83 -18 -101 139 -176 418 -201
128 -12 199 -7 377 25 82 15 108 16 187 5 154 -19 258 -54 389 -131 110 -65
175 -127 246 -233 99 -148 203 -269 327 -382 132 -120 198 -167 326 -229 133
-65 382 -125 519 -125 63 0 138 -9 214 -25 12 -3 22 -12 22 -19 0 -8 17 -54
37 -103 31 -75 47 -99 107 -159 74 -73 182 -142 296 -190 39 -16 78 -41 98
-63 30 -33 32 -37 16 -48 -19 -14 -68 -32 -157 -57 -78 -23 -86 -38 -97 -182
-4 -66 -20 -198 -34 -294 -14 -96 -31 -209 -37 -250 -19 -137 -20 -141 -64
-186 -50 -53 -102 -154 -117 -229 -10 -50 -9 -57 15 -97 14 -24 37 -54 52 -68
54 -50 177 -18 236 62 50 67 138 234 149 283 7 28 14 81 16 119 3 39 17 102
31 140 13 39 27 79 30 89 9 30 17 19 42 -56 12 -39 65 -178 116 -307 l93 -235
4 -115 c5 -130 29 -214 75 -262 15 -16 60 -45 101 -65 l73 -37 72 12 c77 13
98 30 124 96 19 50 15 179 -8 275 -11 47 -27 115 -36 151 -8 36 -44 120 -79
186 -35 67 -73 148 -85 180 -52 151 -90 359 -76 416 6 24 7 24 84 15 128 -14
267 -4 353 26 201 71 415 293 529 548 66 149 186 302 324 414 61 50 201 178
311 286 111 107 260 247 332 310 214 187 266 233 291 255 19 16 44 23 108 28
45 3 125 17 176 31 52 14 157 36 234 50 217 37 377 73 497 111 92 28 125 34
201 34 51 0 108 -5 128 -10 28 -8 43 -7 65 5 50 26 87 19 158 -29 35 -25 83
-54 105 -65 48 -25 123 -27 165 -6 15 8 40 15 55 15 58 0 156 103 168 175 11
71 -74 188 -174 238 -102 52 -262 99 -367 108 -140 12 -484 16 -581 6 l-80 -8
32 29 c21 18 59 35 105 47 91 23 196 73 271 129 70 52 483 476 587 601 41 50
89 103 108 120 41 36 138 95 155 95 7 0 29 20 49 43 43 51 72 61 223 74 121
11 152 29 192 111 59 121 38 190 -77 249 -107 54 -149 59 -271 33 -127 -27
-220 -65 -315 -130 -40 -27 -111 -72 -157 -99 -46 -28 -125 -84 -176 -125 -50
-41 -142 -111 -204 -154 -116 -82 -209 -168 -254 -234 -14 -21 -29 -38 -33
-38 -4 0 -51 40 -104 90 -111 103 -149 130 -262 190 -55 29 -87 53 -99 74 -10
17 -42 69 -72 115 -63 97 -93 171 -122 298 -40 176 -30 225 106 502 100 205
186 345 269 436 93 104 119 146 120 199 1 28 9 68 18 90 33 74 17 166 -35 210
-18 15 -29 34 -29 50 0 32 -34 51 -110 61 -30 4 -83 16 -116 26 -51 16 -66 26
-88 60 -27 40 -80 72 -137 83 -71 12 -152 19 -237 20 l-94 1 -35 115 c-19 63
-36 117 -39 119 -2 2 -11 -13 -20 -35z m-679 -273 c3 -5 2 -12 -3 -15 -5 -3
-9 1 -9 9 0 17 3 19 12 6z m40 -30 c3 -5 2 -12 -3 -15 -5 -3 -9 1 -9 9 0 17 3
19 12 6z m90 -21 c4 -6 1 -9 -7 -8 -7 2 -12 -3 -10 -10 1 -8 -2 -11 -6 -8 -14
8 -40 -26 -37 -47 2 -11 0 -16 -3 -12 -4 4 -8 15 -8 26 -2 32 -4 35 -14 19 -6
-9 -10 -10 -10 -3 0 6 5 15 10 18 6 4 7 11 4 17 -5 7 -2 8 7 2 22 -14 37 -13
50 2 14 17 16 17 24 4z m102 -27 c0 -9 -4 -10 -14 -2 -7 6 -13 12 -13 14 0 1
6 2 13 2 8 0 14 -6 14 -14z m-70 -21 c-10 -10 -15 -22 -12 -25 3 -4 2 -5 -2
-2 -11 8 -13 36 -2 29 5 -3 12 2 15 11 4 9 9 13 12 10 3 -2 -2 -13 -11 -23z
m-63 -29 c-3 -34 -3 -35 6 -14 8 18 14 21 22 13 13 -13 3 -46 -12 -37 -5 3
-10 0 -11 -7 0 -10 -2 -10 -6 0 -2 6 -9 10 -13 7 -5 -3 -12 0 -16 6 -4 8 -3 9
4 5 8 -4 12 1 13 13 1 12 3 26 4 31 1 6 3 12 4 15 0 3 3 5 5 5 2 0 2 -17 0
-37z m814 -20 c-4 -13 26 -53 39 -53 7 0 13 -4 13 -10 0 -16 -36 -11 -58 8
-16 13 -18 22 -12 40 9 20 23 32 18 15z m-731 -18 c0 -8 -5 -11 -10 -8 -5 3
-7 0 -5 -8 3 -8 11 -13 18 -11 11 3 11 0 1 -12 -7 -8 -20 -12 -28 -9 -12 5
-14 3 -8 -7 5 -9 4 -11 -3 -6 -7 4 -17 16 -23 28 -6 12 -7 18 -1 14 5 -3 13 1
16 10 3 8 10 13 15 9 5 -3 12 -1 16 5 9 14 12 13 12 -5z m871 -1 c25 -17 31
-60 8 -51 -8 3 -17 1 -20 -6 -3 -7 -3 0 0 14 4 17 0 32 -11 43 -21 20 -6 21
23 0z m-51 -60 c-3 -3 -12 -4 -19 -1 -8 3 -5 6 6 6 11 1 17 -2 13 -5z m-727
-119 c0 -2 -6 -8 -13 -14 -10 -8 -14 -7 -14 2 0 8 6 14 14 14 7 0 13 -1 13 -2z
m1260 -95 c0 -5 -5 -10 -11 -10 -5 0 -7 5 -4 10 3 6 8 10 11 10 2 0 4 -4 4
-10z"/>
<path d="M5866 7268 c3 -5 10 -6 15 -3 13 9 11 12 -6 12 -8 0 -12 -4 -9 -9z"/>
<path d="M5921 7204 c0 -11 3 -14 6 -6 3 7 2 16 -1 19 -3 4 -6 -2 -5 -13z"/>
<path d="M5946 7165 c-3 -9 -6 -18 -6 -19 0 -1 9 -2 19 -2 16 0 18 3 8 16 -6
8 -12 16 -13 18 -1 2 -4 -4 -8 -13z"/>
<path d="M6857 7159 c4 -13 8 -18 11 -10 2 7 -1 18 -6 23 -8 8 -9 4 -5 -13z"/>
</g>
</svg>
